<?xml version="1.0" encoding="UTF-8"?>
<svg width="25px" height="25px" viewBox="0 0 25 25" version="1.1" xmlns="http://www.w3.org/2000/svg" xmlns:xlink="http://www.w3.org/1999/xlink">
    <!-- Generator: Sketch 56.2 (81672) - https://sketch.com -->
    <title>Fill 192 + Fill 193 + Fill 194</title>
    <desc>Created with Sketch.</desc>
    <defs>
        <linearGradient x1="17.5680734%" y1="-26.212692%" x2="70.301693%" y2="98.3370732%" id="linearGradient-1">
            <stop stop-color="#0075C9" offset="0%"></stop>
            <stop stop-color="#04CD7C" offset="100%"></stop>
        </linearGradient>
    </defs>
    <g id="Mobile" stroke="none" stroke-width="1" fill="none" fill-rule="evenodd">
        <g id="iPhone-XS" transform="translate(-40.000000, -221.000000)" fill="url(#linearGradient-1)">
            <g id="Group-5" transform="translate(19.000000, 124.000000)">
                <g id="Fill-192-+-Fill-193-+-Fill-194">
                    <g transform="translate(21.000000, 97.000000)">
                        <path d="M9.375,18.1766657 C9.40940107,18.195557 9.44344241,18.2154874 9.47708333,18.2364583 L16.628125,22.70625 L22.9166667,18.2135417 L22.9166667,3.065625 L17.8385417,6.69270833 C17.7959575,6.72322701 17.752522,6.75195925 17.7083333,6.77890257 L17.7083333,19.7916667 C17.7083333,20.3677083 17.2427083,20.8333333 16.6666667,20.8333333 C16.090625,20.8333333 15.625,20.3677083 15.625,19.7916667 L15.625,6.82342687 C15.5905832,6.80450628 15.5565413,6.7845449 15.5229167,6.76354167 L8.371875,2.29375 L2.08333333,6.78645833 L2.08333333,21.934375 L3.85833333,20.665625 C4.32604167,20.3291667 4.97604167,20.4364583 5.3125,20.9041667 C5.64791667,21.371875 5.540625,22.0229167 5.07291667,22.3583333 L3.29375,23.6302083 C2.65625,24.0833333 1.82604167,24.14375 1.13020833,23.7875 C0.433333333,23.428125 0,22.71875 0,21.934375 L0,6.78645833 C0,6.11458333 0.326041667,5.48125 0.872916667,5.09166667 L7.16145833,0.598958333 C7.84895833,0.10625 8.75833333,0.0802083333 9.47708333,0.528125 L16.628125,4.99791667 L21.70625,1.37083333 C22.3427083,0.915625 23.171875,0.855208333 23.8697917,1.2125 C24.5666667,1.571875 25,2.28125 25,3.065625 L25,18.2135417 C25,18.8854167 24.6729167,19.51875 24.1270833,19.9083333 L17.8385417,24.4010417 C17.4760417,24.6604167 17.053125,24.790625 16.6291667,24.790625 C16.246875,24.790625 15.8635417,24.684375 15.5229167,24.471875 L8.371875,20.0020833 C7.90520833,20.3364583 7.25416667,20.2270833 6.91979167,19.7614583 C6.584375,19.29375 6.69270833,18.6427083 7.16041667,18.3072917 C7.20335261,18.2766324 7.24713511,18.2477716 7.29166667,18.2207132 L7.29166667,5.20833333 C7.29166667,4.63229167 7.75729167,4.16666667 8.33333333,4.16666667 C8.909375,4.16666667 9.375,4.63229167 9.375,5.20833333 L9.375,18.1766657 Z" id="Combined-Shape"></path>
                    </g>
                </g>
            </g>
        </g>
    </g>
</svg>